<?xml version="1.0" standalone="no"?><!DOCTYPE svg PUBLIC "-//W3C//DTD SVG 1.1//EN" "http://www.w3.org/Graphics/SVG/1.1/DTD/svg11.dtd"><svg t="1528944741623" class="icon" style="" viewBox="0 0 1024 1024" version="1.1" xmlns="http://www.w3.org/2000/svg" p-id="4486" xmlns:xlink="http://www.w3.org/1999/xlink" width="200" height="200"><defs><style type="text/css"></style></defs><path d="M567.525736 447.477452c0 0 3.635073-447.477452 0-447.477452 255.727366 0 444.569393 190.114303 444.569393 447.477452C1012.095129 448.931481 567.525736 447.477452 567.525736 447.477452L567.525736 447.477452 567.525736 447.477452zM975.017387 539.263038c0 267.723106-215.559812 484.736947-481.647135 484.736947C227.464683 1023.999985 11.904871 806.986143 11.904871 539.263038 11.904871 271.539932 227.464683 54.526091 493.370252 54.526091c12.541001 0 24.718494 0.908768 37.077742 1.817536l0 428.39332 441.661335 0C973.926866 501.821789 975.017387 521.632935 975.017387 539.263038L975.017387 539.263038 975.017387 539.263038zM935.576848 524.35924 493.370252 524.35924l0-432.573653c-245.549162 0-444.569393 200.292507-444.569393 447.477452s199.020231 447.477452 444.569393 447.477452c245.549162 0 444.569393-200.292507 444.569393-447.477452C937.939646 491.098324 935.576848 524.35924 935.576848 524.35924L935.576848 524.35924 935.576848 524.35924zM935.576848 524.35924" p-id="4487" fill="#7A7A7A"></path></svg>